<?xml version="1.0" encoding="utf-8"?>
<!-- Generator: Adobe Illustrator 21.0.0, SVG Export Plug-In . SVG Version: 6.00 Build 0)  -->
<!DOCTYPE svg PUBLIC "-//W3C//DTD SVG 1.1//EN" "http://www.w3.org/Graphics/SVG/1.1/DTD/svg11.dtd">
<svg version="1.1" id="Layer_1" xmlns="http://www.w3.org/2000/svg" xmlns:xlink="http://www.w3.org/1999/xlink" x="0px" y="0px"
	 viewBox="0 0 129.9 129.9" style="enable-background:new 0 0 129.9 129.9;" xml:space="preserve">
<style type="text/css">
	.st0{fill:#0083B3;}
	.st1{fill:#CCEFFC;}
</style>
<g>
	<path class="st0" d="M64.9,129.9L64.9,129.9c35.9,0,64.9-29.1,64.9-64.9v0C129.9,29.1,100.8,0,64.9,0h0C29.1,0,0,29.1,0,64.9v0
		C0,100.8,29.1,129.9,64.9,129.9z M33.5,57.5l40.4-38.6l13.8,14.5L54.8,65l31.7,31.8l-14.2,14.1L33.4,71.8c-1.9-1.9-3-4.5-2.9-7.2
		C30.5,62,31.6,59.4,33.5,57.5z"/>
	<path class="st1" d="M72.2,110.9l14.2-14.1L54.8,65l33-31.5L73.9,18.9L33.5,57.5c-1.9,1.9-3.1,4.4-3.1,7.1c0,2.7,1,5.3,2.9,7.2
		L72.2,110.9z"/>
</g>
</svg>
