<?xml version="1.0" encoding="utf-8"?>
<!-- Generator: Adobe Illustrator 21.0.0, SVG Export Plug-In . SVG Version: 6.00 Build 0)  -->
<!DOCTYPE svg PUBLIC "-//W3C//DTD SVG 1.1//EN" "http://www.w3.org/Graphics/SVG/1.1/DTD/svg11.dtd">
<svg version="1.1" id="Layer_1" xmlns="http://www.w3.org/2000/svg" xmlns:xlink="http://www.w3.org/1999/xlink" x="0px" y="0px"
	 viewBox="0 0 129.9 129.9" style="enable-background:new 0 0 129.9 129.9;" xml:space="preserve">
<style type="text/css">
	.st0{fill:#0083B3;}
	.st1{fill:#CCEFFC;}
</style>
<g>
	<path class="st0" d="M64.9,0L64.9,0C29.1,0,0,29.1,0,64.9v0c0,35.9,29.1,64.9,64.9,64.9h0c35.9,0,64.9-29.1,64.9-64.9v0
		C129.9,29.1,100.8,0,64.9,0z M96.3,72.3l-40.4,38.6L42.1,96.4l33-31.5L43.4,33.1l14.2-14.1L96.5,58c1.9,1.9,3,4.5,2.9,7.2
		C99.4,67.9,98.3,70.5,96.3,72.3z"/>
	<path class="st1" d="M57.6,18.9L43.4,33.1l31.7,31.8l-33,31.5l13.8,14.5l40.4-38.6c1.9-1.9,3.1-4.4,3.1-7.1c0-2.7-1-5.3-2.9-7.2
		L57.6,18.9z"/>
</g>
</svg>
