<?xml version="1.0" encoding="utf-8"?>
<!-- Generator: Adobe Illustrator 21.0.0, SVG Export Plug-In . SVG Version: 6.00 Build 0)  -->
<!DOCTYPE svg PUBLIC "-//W3C//DTD SVG 1.1//EN" "http://www.w3.org/Graphics/SVG/1.1/DTD/svg11.dtd">
<svg version="1.1" id="Layer_1" xmlns="http://www.w3.org/2000/svg" xmlns:xlink="http://www.w3.org/1999/xlink" x="0px" y="0px"
	 viewBox="0 0 400 250.2" style="enable-background:new 0 0 400 250.2;" xml:space="preserve">
<style type="text/css">
	.st0{fill:#ABFFED;}
	.st1{fill:#414042;}
	.st2{fill:#FFFFFF;}
	.st3{fill:#0083B3;}
</style>
<g>
	<path class="st0" d="M30.4,107.3c-4,1.2-6.3,1.9-6.8,2.1c-0.5,0.2-0.9,0.3-1.2,0.3c1.1,0.3,3.8,1.1,8,2.4V107.3z"/>
	<path class="st0" d="M30.4,173.9c-4,1.2-6.3,1.9-6.8,2.1c-0.5,0.2-0.9,0.3-1.2,0.3c1.1,0.3,3.8,1.1,8,2.4V173.9z"/>
	<path class="st0" d="M0,0v250.2h400V0H0z M270.5,25.2c1.7-1.7,4.1-2.5,7.1-2.5c1.9,0,3.7,0.4,5.5,1.1l-1.3,3.1
		c-1.4-0.7-2.8-1-4.2-1c-1.7,0-3.1,0.6-4.1,1.7c-1,1.1-1.5,2.7-1.5,4.6c0,2,0.4,3.6,1.2,4.6c0.8,1.1,2,1.6,3.6,1.6
		c0.8,0,1.7-0.1,2.5-0.3v-3.9h-3.5v-3.3h7.4v9.6c-1.2,0.4-2.3,0.7-3.4,0.8c-1.1,0.2-2.1,0.2-3.2,0.2c-2.8,0-4.9-0.8-6.4-2.5
		c-1.5-1.6-2.2-4-2.2-7.1C268,29.2,268.8,26.9,270.5,25.2z M247.6,22.9h5l8.1,13.9h0.1c-0.1-2.4-0.2-4.1-0.2-5.1v-8.8h3.5v18.6h-5
		l-8.1-14h-0.1c0.2,2.5,0.2,4.2,0.2,5.3v8.7h-3.5V22.9z M239,22.9h3.9v18.6H239V22.9z M224.5,22.9h10.7v3.2h-6.8v4.1h6.3v3.2h-6.3
		v4.8h6.8v3.2h-10.7V22.9z M207,22.9h5.8c2.6,0,4.5,0.4,5.7,1.1c1.2,0.8,1.8,1.9,1.8,3.6c0,1.1-0.3,2-0.8,2.7s-1.2,1.1-2.1,1.3v0.1
		c1.2,0.3,2,0.8,2.5,1.5s0.8,1.7,0.8,2.9c0,1.7-0.6,3-1.8,4c-1.2,0.9-2.9,1.4-5,1.4H207V22.9z M197.1,32.9h6.8v3.2h-6.8V32.9z
		 M184,22.9h3.9v15.3h7.5v3.2H184V22.9z M169.3,22.9h3.9v15.3h7.5v3.2h-11.5V22.9z M154.7,22.9h10.7v3.2h-6.8v4.1h6.3v3.2h-6.3v4.8
		h6.8v3.2h-10.7V22.9z M131.1,22.9l2.4,10.1c0.4,1.9,0.7,3.5,0.9,4.9c0.1-0.5,0.2-1.2,0.3-2.2c0.2-1,0.4-1.8,0.5-2.4l2.7-10.4h3.7
		l2.7,10.4c0.1,0.5,0.3,1.2,0.4,2.1s0.3,1.8,0.4,2.5c0.1-0.7,0.2-1.5,0.4-2.5c0.2-1,0.4-1.8,0.5-2.4l2.4-10.1h3.9l-4.7,18.6h-4.5
		l-2.5-9.8c-0.1-0.3-0.3-1.1-0.5-2.2c-0.2-1.1-0.4-1.8-0.4-2.2c-0.1,0.5-0.2,1.2-0.4,2.2c-0.2,1-0.4,1.7-0.5,2.2l-2.5,9.7H132
		l-4.7-18.6H131.1z M111.9,125l27.3,14.3l23.3-11.1l36.4-15l28,14l34.2-16.8l21.3,35.9l32.4-43.8l31.1,4.8l-1.7,10.9l-24.6-3.8
		l-38.3,51.8l-24.6-41.4l-30,14.7l-28.4-14.2l-31.6,13.1l-27.9,13.2L111.2,137l-25.8,9.9l-3.9-10.3L111.9,125z M19.5,68.9h3.2v6.8
		h4.1v-6.3h3.2v6.3h4.8v-6.8h3.2v10.7H19.5V68.9z M38.1,171.6l-4.4,1.3v6.8l4.4,1.3v4.2l-18.6-6.6v-4.8l18.6-6.6V171.6z M38.1,161
		l-18.6,6.3v-4l11-3.5c0.7-0.2,1.4-0.4,2.3-0.6c0.9-0.2,1.5-0.3,1.8-0.4c-0.8-0.1-2.1-0.4-4.1-1l-11-3.5v-4l18.6,6.3V161z
		 M38.1,148.1H19.5v-10.7h3.2v6.8h4.1v-6.3h3.2v6.3h4.8v-6.8h3.2V148.1z M38.1,105l-4.4,1.3v6.8l4.4,1.3v4.2v4.4l-7.1,4.4v2.1h7.1
		v3.9H19.5v-5.4c0-2.5,0.5-4.4,1.4-5.6s2.3-1.8,4.2-1.8c1.1,0,2.1,0.3,2.9,0.9s1.5,1.5,2,2.6c4.2-2.8,6.9-4.6,8.1-5.5l-18.6-6.6
		v-4.8l18.6-6.6V105z M35.9,97.1c-1.6,1.5-4,2.2-7.1,2.2c-3,0-5.3-0.9-7-2.6c-1.7-1.7-2.5-4.1-2.5-7.1c0-1.9,0.4-3.7,1.1-5.5
		l3.1,1.3c-0.7,1.4-1,2.8-1,4.2c0,1.7,0.6,3.1,1.7,4.1s2.7,1.5,4.6,1.5c2,0,3.6-0.4,4.6-1.2c1.1-0.8,1.6-2,1.6-3.6
		c0-0.8-0.1-1.7-0.3-2.5H31v3.5h-3.3V84h9.6c0.4,1.2,0.7,2.3,0.8,3.4c0.2,1.1,0.2,2.1,0.2,3.2C38.4,93.4,37.5,95.6,35.9,97.1z
		 M162.9,231.7h-4.5l-2.5-9.8c-0.1-0.3-0.3-1.1-0.5-2.2c-0.2-1.1-0.4-1.8-0.4-2.2c-0.1,0.5-0.2,1.2-0.4,2.2c-0.2,1-0.4,1.7-0.5,2.2
		l-2.5,9.7h-4.5l-4.7-18.6h3.9l2.4,10.1c0.4,1.9,0.7,3.5,0.9,4.9c0.1-0.5,0.2-1.2,0.3-2.2c0.2-1,0.4-1.8,0.5-2.4l2.7-10.4h3.7
		l2.7,10.4c0.1,0.5,0.3,1.2,0.4,2.1s0.3,1.8,0.4,2.5c0.1-0.7,0.2-1.5,0.4-2.5c0.2-1,0.4-1.8,0.5-2.4l2.4-10.1h3.9L162.9,231.7z
		 M180.6,216.3h-6.8v4.1h6.3v3.2h-6.3v4.8h6.8v3.2h-10.7v-18.6h10.7V216.3z M195.2,216.3h-6.8v4.1h6.3v3.2h-6.3v4.8h6.8v3.2h-10.7
		v-18.6h10.7V216.3z M209.5,231.7l-4.9-7.8l-1.7,1.2v6.6h-3.9v-18.6h3.9v8.5l1.5-2.2l5-6.3h4.4l-6.5,8.2l6.5,10.3H209.5z
		 M225.5,230.5c-1.2,1-2.9,1.4-5,1.4c-2,0-3.7-0.4-5.3-1.1v-3.7c1.3,0.6,2.3,1,3.2,1.2c0.9,0.2,1.7,0.3,2.4,0.3c0.9,0,1.5-0.2,2-0.5
		c0.5-0.3,0.7-0.8,0.7-1.5c0-0.4-0.1-0.7-0.3-1c-0.2-0.3-0.5-0.6-0.9-0.8s-1.2-0.7-2.4-1.3c-1.1-0.5-2-1-2.6-1.5
		c-0.6-0.5-1-1.1-1.4-1.7c-0.3-0.7-0.5-1.4-0.5-2.3c0-1.6,0.6-2.9,1.7-3.9c1.1-0.9,2.7-1.4,4.6-1.4c1,0,1.9,0.1,2.8,0.3
		s1.8,0.5,2.7,1l-1.3,3.1c-1-0.4-1.8-0.7-2.5-0.9s-1.3-0.2-1.9-0.2c-0.7,0-1.3,0.2-1.7,0.5c-0.4,0.3-0.6,0.8-0.6,1.4
		c0,0.3,0.1,0.6,0.2,0.9c0.2,0.3,0.4,0.5,0.8,0.8c0.4,0.2,1.2,0.7,2.5,1.3c1.7,0.8,2.9,1.7,3.6,2.5c0.6,0.8,1,1.9,1,3.1
		C227.3,228.2,226.7,229.5,225.5,230.5z M357.5,187.8H57.3V31.5h5v151.3h295.1V187.8z"/>
	<path class="st0" d="M25.2,124.7c-0.9,0-1.5,0.3-1.9,0.9c-0.4,0.6-0.6,1.5-0.6,2.8v1.2h5v-1.3c0-1.2-0.2-2.2-0.6-2.8
		S26.1,124.7,25.2,124.7z"/>
	<path class="st0" d="M216.7,35.7c0-1.5-1.1-2.3-3.3-2.3h-2.4v4.8h2.6c1.1,0,1.9-0.2,2.4-0.6C216.4,37.2,216.7,36.6,216.7,35.7z"/>
	<path class="st0" d="M215.5,29.8c0.5-0.3,0.7-0.9,0.7-1.6c0-0.7-0.3-1.2-0.8-1.5c-0.5-0.3-1.3-0.5-2.5-0.5h-2.1v4.1h2.3
		C214.3,30.3,215.1,30.1,215.5,29.8z"/>
	<path class="st1" d="M136.4,41.5l2.5-9.7c0.1-0.4,0.3-1.2,0.5-2.2c0.2-1,0.3-1.7,0.4-2.2c0,0.4,0.2,1.1,0.4,2.2
		c0.2,1.1,0.4,1.8,0.5,2.2l2.5,9.8h4.5l4.7-18.6h-3.9l-2.4,10.1c-0.2,0.6-0.3,1.4-0.5,2.4c-0.2,1-0.3,1.8-0.4,2.5
		c-0.1-0.7-0.2-1.5-0.4-2.5s-0.3-1.7-0.4-2.1l-2.7-10.4h-3.7l-2.7,10.4c-0.2,0.6-0.3,1.3-0.5,2.4c-0.2,1-0.3,1.8-0.3,2.2
		c-0.2-1.4-0.5-3-0.9-4.9l-2.4-10.1h-3.9l4.7,18.6H136.4z"/>
	<polygon class="st1" points="165.4,38.3 158.6,38.3 158.6,33.5 164.9,33.5 164.9,30.2 158.6,30.2 158.6,26.2 165.4,26.2 
		165.4,22.9 154.7,22.9 154.7,41.5 165.4,41.5 	"/>
	<polygon class="st1" points="180.7,38.3 173.2,38.3 173.2,22.9 169.3,22.9 169.3,41.5 180.7,41.5 	"/>
	<polygon class="st1" points="195.4,38.3 187.9,38.3 187.9,22.9 184,22.9 184,41.5 195.4,41.5 	"/>
	<rect x="197.1" y="32.9" class="st1" width="6.8" height="3.2"/>
	<path class="st1" d="M218.9,40.1c1.2-0.9,1.8-2.3,1.8-4c0-1.2-0.3-2.1-0.8-2.9s-1.4-1.2-2.5-1.5v-0.1c0.9-0.1,1.6-0.6,2.1-1.3
		s0.8-1.6,0.8-2.7c0-1.6-0.6-2.8-1.8-3.6c-1.2-0.7-3.1-1.1-5.7-1.1H207v18.6h6.9C216.1,41.5,217.7,41,218.9,40.1z M210.9,26.2h2.1
		c1.1,0,1.9,0.2,2.5,0.5c0.5,0.3,0.8,0.8,0.8,1.5c0,0.8-0.2,1.3-0.7,1.6c-0.5,0.3-1.2,0.5-2.3,0.5h-2.3V26.2z M210.9,38.3v-4.8h2.4
		c2.2,0,3.3,0.8,3.3,2.3c0,0.9-0.3,1.5-0.8,1.9c-0.5,0.4-1.3,0.6-2.4,0.6H210.9z"/>
	<polygon class="st1" points="235.2,38.3 228.4,38.3 228.4,33.5 234.7,33.5 234.7,30.2 228.4,30.2 228.4,26.2 235.2,26.2 
		235.2,22.9 224.5,22.9 224.5,41.5 235.2,41.5 	"/>
	<rect x="239" y="22.9" class="st1" width="3.9" height="18.6"/>
	<path class="st1" d="M251.2,32.8c0-1.1-0.1-2.8-0.2-5.3h0.1l8.1,14h5V22.9h-3.5v8.8c0,1,0.1,2.7,0.2,5.1h-0.1l-8.1-13.9h-5v18.6
		h3.5V32.8z"/>
	<path class="st1" d="M276.6,41.8c1.1,0,2.2-0.1,3.2-0.2c1.1-0.2,2.2-0.4,3.4-0.8v-9.6h-7.4v3.3h3.5v3.9c-0.8,0.2-1.7,0.3-2.5,0.3
		c-1.6,0-2.8-0.5-3.6-1.6c-0.8-1.1-1.2-2.6-1.2-4.6c0-1.9,0.5-3.5,1.5-4.6c1-1.1,2.4-1.7,4.1-1.7c1.5,0,2.9,0.3,4.2,1l1.3-3.1
		c-1.8-0.8-3.6-1.1-5.5-1.1c-3,0-5.4,0.8-7.1,2.5s-2.6,4-2.6,7c0,3.1,0.7,5.4,2.2,7.1C271.7,40.9,273.8,41.8,276.6,41.8z"/>
	<path d="M161.4,223.3c-0.2,0.6-0.3,1.4-0.5,2.4c-0.2,1-0.3,1.8-0.4,2.5c-0.1-0.7-0.2-1.5-0.4-2.5s-0.3-1.7-0.4-2.1l-2.7-10.4h-3.7
		l-2.7,10.4c-0.2,0.6-0.3,1.3-0.5,2.4c-0.2,1-0.3,1.8-0.3,2.2c-0.2-1.4-0.5-3-0.9-4.9l-2.4-10.1h-3.9l4.7,18.6h4.5l2.5-9.7
		c0.1-0.4,0.3-1.2,0.5-2.2c0.2-1,0.3-1.7,0.4-2.2c0,0.4,0.2,1.1,0.4,2.2c0.2,1.1,0.4,1.8,0.5,2.2l2.5,9.8h4.5l4.7-18.6h-3.9
		L161.4,223.3z"/>
	<polygon points="169.9,231.7 180.6,231.7 180.6,228.4 173.9,228.4 173.9,223.6 180.1,223.6 180.1,220.4 173.9,220.4 173.9,216.3 
		180.6,216.3 180.6,213.1 169.9,213.1 	"/>
	<polygon points="184.5,231.7 195.2,231.7 195.2,228.4 188.4,228.4 188.4,223.6 194.7,223.6 194.7,220.4 188.4,220.4 188.4,216.3 
		195.2,216.3 195.2,213.1 184.5,213.1 	"/>
	<polygon points="213.9,213.1 209.6,213.1 204.5,219.4 203,221.6 203,213.1 199.1,213.1 199.1,231.7 203,231.7 203,225.1 
		204.6,223.9 209.5,231.7 214,231.7 207.5,221.3 	"/>
	<path d="M222.7,221c-1.3-0.6-2.1-1.1-2.5-1.3c-0.4-0.2-0.6-0.5-0.8-0.8c-0.2-0.3-0.2-0.6-0.2-0.9c0-0.6,0.2-1,0.6-1.4
		c0.4-0.3,1-0.5,1.7-0.5c0.6,0,1.3,0.1,1.9,0.2s1.5,0.4,2.5,0.9l1.3-3.1c-1-0.4-1.9-0.7-2.7-1s-1.8-0.3-2.8-0.3
		c-2,0-3.5,0.5-4.6,1.4c-1.1,0.9-1.7,2.2-1.7,3.9c0,0.9,0.2,1.6,0.5,2.3c0.3,0.7,0.8,1.2,1.4,1.7c0.6,0.5,1.4,1,2.6,1.5
		c1.2,0.6,2,1,2.4,1.3s0.7,0.5,0.9,0.8c0.2,0.3,0.3,0.6,0.3,1c0,0.7-0.2,1.1-0.7,1.5c-0.5,0.3-1.1,0.5-2,0.5c-0.7,0-1.5-0.1-2.4-0.3
		c-0.9-0.2-1.9-0.6-3.2-1.2v3.7c1.5,0.7,3.3,1.1,5.3,1.1c2.2,0,3.8-0.5,5-1.4s1.8-2.3,1.8-4c0-1.2-0.3-2.2-1-3.1
		C225.7,222.6,224.5,221.8,222.7,221z"/>
	<path class="st1" d="M19.5,178.7l18.6,6.6V181l-4.4-1.3v-6.8l4.4-1.3v-4.2l-18.6,6.6V178.7z M23.6,176c0.5-0.2,2.8-0.9,6.8-2.1v4.8
		c-4.3-1.3-7-2.1-8-2.4C22.7,176.2,23.1,176.1,23.6,176z"/>
	<path class="st1" d="M19.5,154.4l11,3.5c1.9,0.5,3.3,0.9,4.1,1c-0.3,0.1-0.9,0.2-1.8,0.4c-0.9,0.2-1.6,0.4-2.3,0.6l-11,3.5v4
		l18.6-6.3v-4.3l-18.6-6.3V154.4z"/>
	<polygon class="st1" points="34.9,144.2 30.1,144.2 30.1,137.9 26.8,137.9 26.8,144.2 22.8,144.2 22.8,137.4 19.5,137.4 
		19.5,148.1 38.1,148.1 38.1,137.4 34.9,137.4 	"/>
	<path class="st1" d="M28,121.6c-0.9-0.6-1.8-0.9-2.9-0.9c-1.9,0-3.3,0.6-4.2,1.8s-1.4,3.1-1.4,5.6v5.4h18.6v-3.9H31v-2.1l7.1-4.4
		v-4.4c-1.2,0.8-3.9,2.7-8.1,5.5C29.5,123.1,28.9,122.2,28,121.6z M27.8,129.6h-5v-1.2c0-1.3,0.2-2.2,0.6-2.8c0.4-0.6,1-0.9,1.9-0.9
		c0.9,0,1.5,0.3,2,0.9s0.6,1.5,0.6,2.8V129.6z"/>
	<path class="st1" d="M19.5,112.2l18.6,6.6v-4.2l-4.4-1.3v-6.8l4.4-1.3v-4.2l-18.6,6.6V112.2z M23.6,109.4c0.5-0.2,2.8-0.9,6.8-2.1
		v4.8c-4.3-1.3-7-2.1-8-2.4C22.7,109.7,23.1,109.6,23.6,109.4z"/>
	<path class="st1" d="M37.3,84h-9.6v7.4H31v-3.5h3.9c0.2,0.8,0.3,1.7,0.3,2.5c0,1.6-0.5,2.8-1.6,3.6c-1.1,0.8-2.6,1.2-4.6,1.2
		c-1.9,0-3.5-0.5-4.6-1.5s-1.7-2.4-1.7-4.1c0-1.5,0.3-2.9,1-4.2l-3.1-1.3c-0.8,1.8-1.1,3.6-1.1,5.5c0,3,0.8,5.4,2.5,7.1
		c1.7,1.7,4,2.6,7,2.6c3.1,0,5.4-0.7,7.1-2.2c1.6-1.5,2.5-3.6,2.5-6.4c0-1.1-0.1-2.2-0.2-3.2C38,86.4,37.7,85.2,37.3,84z"/>
	<polygon class="st1" points="38.1,68.9 34.9,68.9 34.9,75.7 30.1,75.7 30.1,69.4 26.8,69.4 26.8,75.7 22.8,75.7 22.8,68.9 
		19.5,68.9 19.5,79.6 38.1,79.6 	"/>
	<polygon class="st2" points="62.3,31.5 57.3,31.5 57.3,187.8 357.5,187.8 357.5,182.8 62.3,182.8 	"/>
	<polygon class="st3" points="111.2,137 138.9,151.5 166.8,138.3 198.4,125.2 226.8,139.4 256.7,124.7 281.3,166.1 319.6,114.3 
		344.2,118.1 345.8,107.2 314.7,102.5 282.3,146.3 261,110.4 226.8,127.1 198.8,113.2 162.5,128.2 139.2,139.2 111.9,125 
		81.4,136.7 85.3,146.9 	"/>
</g>
</svg>
