<?xml version="1.0" encoding="utf-8"?>
<!-- Generator: Adobe Illustrator 22.0.1, SVG Export Plug-In . SVG Version: 6.00 Build 0)  -->
<svg version="1.1" id="Layer_1" xmlns="http://www.w3.org/2000/svg" xmlns:xlink="http://www.w3.org/1999/xlink" x="0px" y="0px"
	 viewBox="0 0 610.7 382" style="enable-background:new 0 0 610.7 382;" xml:space="preserve">
<style type="text/css">
	.st0{fill:#414042;}
	.st1{font-family:'OpenSans-Bold';}
	.st2{font-size:26px;}
	.st3{fill:none;stroke:#3F3F3F;stroke-width:5;stroke-miterlimit:10;}
	.st4{font-family:'OpenSans';}
	.st5{font-size:20px;}
	.st6{fill:none;stroke:#9CAAAD;stroke-width:11;stroke-miterlimit:10;}
</style>
<text transform="matrix(1 0 0 1 245.7232 53.199)" class="st0 st1 st2">WELL-BEING</text>
<g>
	<text transform="matrix(1 0 0 1 278.7472 357.6277)" class="st0 st1 st2">WEEKS</text>
</g>
<text transform="matrix(0 -1 1 0 63.1006 202.0996)" class="st0 st1 st2">AVERAGE</text>
<polyline class="st3" points="559.7,251.9 105.2,251.9 105.2,251.1 105.2,29.2 "/>
<text transform="matrix(0.7071 -0.7071 0.7071 0.7071 518.3508 314.6185)" class="st4 st5">12/3</text>
<text transform="matrix(0.7071 -0.7071 0.7071 0.7071 457.1391 318.6614)" class="st4 st5">11/26</text>
<text transform="matrix(0.7071 -0.7071 0.7071 0.7071 399.9707 318.6614)" class="st4 st5">11/19</text>
<text transform="matrix(0.7071 -0.7071 0.7071 0.7071 342.8022 318.6614)" class="st4 st5">11/12</text>
<text transform="matrix(0.7071 -0.7071 0.7071 0.7071 289.6765 314.6185)" class="st4 st5">11/5</text>
<text transform="matrix(0.7071 -0.7071 0.7071 0.7071 228.4653 318.6614)" class="st4 st5">10/29</text>
<text transform="matrix(0.7071 -0.7071 0.7071 0.7071 171.2973 318.6614)" class="st4 st5">10/22</text>
<text transform="matrix(0.7071 -0.7071 0.7071 0.7071 114.1286 318.6614)" class="st4 st5">10/15</text>
<polyline class="st6" points="141.2,167.6 184.2,151.1 226.2,173.1 265.2,154.6 317.2,133.1 360.2,154.6 409.2,130.6 444.2,189.6 
	498.2,116.6 540.7,123.1 "/>
</svg>
