<?xml version="1.0" encoding="utf-8"?>
<!-- Generator: Adobe Illustrator 22.0.1, SVG Export Plug-In . SVG Version: 6.00 Build 0)  -->
<svg version="1.1" id="Layer_1" xmlns="http://www.w3.org/2000/svg" xmlns:xlink="http://www.w3.org/1999/xlink" x="0px" y="0px"
	 viewBox="0 0 459.2 96.4" style="enable-background:new 0 0 459.2 96.4;" xml:space="preserve">
<style type="text/css">
	.st0{fill:#FFFFFF;}
	.st1{opacity:0.75;fill:#FFFFFF;}
	.st2{opacity:0.66;}
	.st3{opacity:0.84;}
</style>
<g>
	<path class="st0" d="M55.2,66.7l-8.6-28h-0.2c0.3,5.7,0.5,9.5,0.5,11.4v16.6H40V31h10.3l8.4,27.3h0.1l9-27.3h10.3v35.7h-7.1V49.8
		c0-0.8,0-1.7,0-2.8c0-1,0.1-3.8,0.3-8.3h-0.2l-9.2,28H55.2z"/>
	<path class="st0" d="M119.6,48.8c0,5.9-1.5,10.4-4.4,13.6s-7.1,4.8-12.6,4.8s-9.7-1.6-12.6-4.8s-4.4-7.7-4.4-13.7
		c0-5.9,1.5-10.5,4.4-13.6c2.9-3.1,7.1-4.7,12.6-4.7c5.5,0,9.7,1.6,12.6,4.7C118.1,38.3,119.6,42.9,119.6,48.8z M93.5,48.8
		c0,4,0.8,7,2.3,9c1.5,2,3.8,3,6.8,3c6,0,9.1-4,9.1-12c0-8-3-12.1-9-12.1c-3,0-5.3,1-6.8,3C94.3,41.8,93.5,44.8,93.5,48.8z"/>
	<path class="st0" d="M147.3,31h7.6l-12.1,35.7h-8.3L122.5,31h7.6l6.7,21.2c0.4,1.3,0.8,2.7,1.2,4.4c0.4,1.7,0.6,2.8,0.7,3.5
		c0.2-1.5,0.8-4.1,1.8-7.9L147.3,31z"/>
	<path class="st0" d="M180,66.7h-20.6V31H180v6.2h-13V45h12.1v6.2H167v9.2h13V66.7z"/>
	<path class="st1" d="M202.6,66.7l-8.6-28h-0.2c0.3,5.7,0.5,9.5,0.5,11.4v16.6h-6.8V31h10.3l8.4,27.3h0.1l9-27.3h10.3v35.7h-7.1
		V49.8c0-0.8,0-1.7,0-2.8c0-1,0.1-3.8,0.3-8.3h-0.2l-9.2,28H202.6z"/>
	<path class="st1" d="M267,48.8c0,5.9-1.5,10.4-4.4,13.6s-7.1,4.8-12.6,4.8s-9.7-1.6-12.6-4.8s-4.4-7.7-4.4-13.7
		c0-5.9,1.5-10.5,4.4-13.6c2.9-3.1,7.1-4.7,12.6-4.7c5.5,0,9.7,1.6,12.6,4.7C265.6,38.3,267,42.9,267,48.8z M241,48.8
		c0,4,0.8,7,2.3,9c1.5,2,3.8,3,6.8,3c6,0,9.1-4,9.1-12c0-8-3-12.1-9-12.1c-3,0-5.3,1-6.8,3C241.7,41.8,241,44.8,241,48.8z"/>
	<path class="st1" d="M282,53v13.7h-7.6V31h10.4c4.9,0,8.4,0.9,10.8,2.6c2.3,1.8,3.5,4.4,3.5,8c0,2.1-0.6,4-1.7,5.6
		c-1.2,1.6-2.8,2.9-4.9,3.8c5.4,8,8.9,13.2,10.5,15.6h-8.4L286,53H282z M282,46.9h2.4c2.4,0,4.2-0.4,5.3-1.2
		c1.1-0.8,1.7-2.1,1.7-3.8c0-1.7-0.6-2.9-1.7-3.6c-1.2-0.7-3-1.1-5.4-1.1H282V46.9z"/>
	<path class="st1" d="M328,66.7h-20.6V31H328v6.2h-13V45h12.1v6.2H315v9.2h13V66.7z"/>
</g>
<g>
	<g class="st2">
		<polygon class="st0" points="399.4,34.1 399.4,40.5 405.2,44.8 409.6,48 405.2,51.2 399.4,55.5 399.4,61.9 418.4,48 		"/>
	</g>
	<g class="st3">
		<polygon class="st0" points="402.9,48 383.9,34.1 383.9,40.5 389.6,44.8 394,48 389.6,51.2 383.9,55.5 383.9,61.9 		"/>
	</g>
	<g>
		<polygon class="st0" points="387.3,48 368.3,34.1 368.3,42.6 355.2,42.6 339.6,42.6 337,42.6 337,53.4 339.6,53.4 355.2,53.4 
			368.3,53.4 368.3,61.9 		"/>
	</g>
</g>
</svg>
